<svg width="54" height="30" fill="none" xmlns="http://www.w3.org/2000/svg"><path d="M42.184 19h1.728v-8.496H42.64c-.088.48-.3.828-.636 1.044-.328.216-.78.324-1.356.324h-.156V13h1.692v6Zm9.03 0v-1.344H48.01c.04-.16.132-.348.276-.564.144-.224.344-.452.6-.684l.96-.888c.24-.216.444-.424.612-.624a3.28 3.28 0 0 0 .408-.636c.104-.216.18-.44.228-.672.048-.24.072-.496.072-.768 0-.744-.208-1.316-.624-1.716-.416-.4-1.056-.6-1.92-.6-.912 0-1.58.212-2.004.636-.424.424-.636 1.032-.636 1.824v.324h1.656c0-.224.008-.436.024-.636.024-.2.068-.376.132-.528a.928.928 0 0 1 .288-.36c.128-.088.3-.132.516-.132.56 0 .84.352.84 1.056 0 .216-.012.408-.036.576a1.493 1.493 0 0 1-.12.468 1.862 1.862 0 0 1-.276.432c-.112.144-.264.3-.456.468l-.696.648a9.184 9.184 0 0 0-.828.864c-.232.28-.428.568-.588.864a4.242 4.242 0 0 0-.348.936A4.92 4.92 0 0 0 45.982 19h5.232Z" fill="#D8D8D8"/><mask id="a" style="mask-type:alpha" maskUnits="userSpaceOnUse" x="5" y="5" width="20" height="20"><path fill-rule="evenodd" clip-rule="evenodd" d="M24 9h-2v9H9v2c0 .55.45 1 1 1h11l4 4V10c0-.55-.45-1-1-1Zm-4 6V6c0-.55-.45-1-1-1H6c-.55 0-1 .45-1 1v14l4-4h10c.55 0 1-.45 1-1Z" fill="#fff"/></mask><g mask="url(#a)"><path fill="#fff" d="M2 2h26v26H2z"/></g></svg>