<svg width="155" height="30" fill="none" xmlns="http://www.w3.org/2000/svg"><mask id="a" style="mask-type:alpha" maskUnits="userSpaceOnUse" x="5" y="5" width="20" height="19"><path fill-rule="evenodd" clip-rule="evenodd" d="M15 20.27 21.18 24l-1.64-7.03L25 12.24l-7.19-.61L15 5l-2.81 6.63-7.19.61 5.46 4.73L8.82 24 15 20.27Z" fill="#fff"/></mask><g mask="url(#a)"><path fill="#F9AD3D" d="M2 2h26v26H2z"/></g><mask id="b" style="mask-type:alpha" maskUnits="userSpaceOnUse" x="30" y="5" width="20" height="19"><path fill-rule="evenodd" clip-rule="evenodd" d="M40 20.27 46.18 24l-1.64-7.03L50 12.24l-7.19-.61L40 5l-2.81 6.63-7.19.61 5.46 4.73L33.82 24 40 20.27Z" fill="#fff"/></mask><g mask="url(#b)"><path fill="#F9AD3D" d="M27 2h26v26H27z"/></g><mask id="c" style="mask-type:alpha" maskUnits="userSpaceOnUse" x="55" y="5" width="20" height="19"><path fill-rule="evenodd" clip-rule="evenodd" d="M65 20.27 71.18 24l-1.64-7.03L75 12.24l-7.19-.61L65 5l-2.81 6.63-7.19.61 5.46 4.73L58.82 24 65 20.27Z" fill="#fff"/></mask><g mask="url(#c)"><path fill="#F9AD3D" d="M52 2h26v26H52z"/></g><mask id="d" style="mask-type:alpha" maskUnits="userSpaceOnUse" x="80" y="5" width="20" height="19"><path fill-rule="evenodd" clip-rule="evenodd" d="m100 12.24-7.19-.62L90 5l-2.81 6.63-7.19.61 5.46 4.73L83.82 24 90 20.27 96.18 24l-1.63-7.03 5.45-4.73ZM90 18.4V9.1l1.71 4.04 4.38.38-3.32 2.88 1 4.28L90 18.4Z" fill="#fff"/></mask><g mask="url(#d)"><path fill="#F9AD3D" d="M77 2h26v26H77z"/></g><mask id="e" style="mask-type:alpha" maskUnits="userSpaceOnUse" x="105" y="5" width="20" height="19"><path fill-rule="evenodd" clip-rule="evenodd" d="m125 12.24-7.19-.62L115 5l-2.81 6.63-7.19.61 5.46 4.73-1.64 7.03 6.18-3.73 6.18 3.73-1.63-7.03 5.45-4.73Zm-10 6.16-3.76 2.27 1-4.28-3.32-2.88 4.38-.38L115 9.1l1.71 4.04 4.38.38-3.32 2.88 1 4.28L115 18.4Z" fill="#fff"/></mask><g mask="url(#e)"><path fill="#F9AD3D" d="M102 2h26v26h-26z"/></g><path d="M141.196 19h2.232v-8.496h-1.608c-.072.248-.164.46-.276.636a1.318 1.318 0 0 1-.432.408 2.197 2.197 0 0 1-.636.216c-.248.04-.544.06-.888.06v1.392h1.608V19Zm5.838-5.616h2.088v-.36c0-.24.016-.432.048-.576a1.11 1.11 0 0 1 .144-.348.452.452 0 0 1 .204-.156.555.555 0 0 1 .228-.048c.176 0 .316.068.42.204.104.136.156.384.156.744 0 .32-.048.58-.144.78-.088.192-.24.396-.456.612l-1.488 1.512c-.488.504-.824 1.024-1.008 1.56a5.317 5.317 0 0 0-.264 1.692h5.592v-1.68h-2.928a.977.977 0 0 1 .228-.372l.324-.324 1.32-1.284c.32-.32.576-.676.768-1.068.192-.392.288-.876.288-1.452 0-.32-.04-.62-.12-.9a1.572 1.572 0 0 0-.42-.732c-.2-.216-.476-.384-.828-.504s-.808-.18-1.368-.18c-.584 0-1.056.068-1.416.204-.36.136-.64.332-.84.588-.2.248-.336.552-.408.912a6.488 6.488 0 0 0-.12 1.176Z" fill="#B3B3B3"/></svg>