<svg width="61" height="30" fill="none" xmlns="http://www.w3.org/2000/svg"><path d="M45.448 19v-1.344h-3.204c.04-.16.132-.348.276-.564.144-.224.344-.452.6-.684l.96-.888c.24-.216.444-.424.612-.624a3.28 3.28 0 0 0 .408-.636c.104-.216.18-.44.228-.672.048-.24.072-.496.072-.768 0-.744-.208-1.316-.624-1.716-.416-.4-1.056-.6-1.92-.6-.912 0-1.58.212-2.004.636-.424.424-.636 1.032-.636 1.824v.324h1.656c0-.224.008-.436.024-.636.024-.2.068-.376.132-.528a.928.928 0 0 1 .288-.36c.128-.088.3-.132.516-.132.56 0 .84.352.84 1.056 0 .216-.012.408-.036.576a1.493 1.493 0 0 1-.12.468 1.862 1.862 0 0 1-.276.432c-.112.144-.264.3-.456.468l-.696.648a9.184 9.184 0 0 0-.828.864c-.232.28-.428.568-.588.864a4.242 4.242 0 0 0-.348.936A4.92 4.92 0 0 0 40.216 19h5.232Zm5.814-8.328H46.03v1.488h3.576a12.984 12.984 0 0 0-1.08 1.74c-.304.592-.564 1.18-.78 1.764A16.31 16.31 0 0 0 46.954 19h1.812c.072-.6.176-1.208.312-1.824.136-.624.308-1.236.516-1.836.208-.6.448-1.184.72-1.752.28-.568.596-1.1.948-1.596v-1.32Zm5.37 1.344v-1.344h-4.429l-.312 4.62h1.548c.032-.24.112-.428.24-.564.136-.144.328-.216.576-.216a1.2 1.2 0 0 1 .48.084.615.615 0 0 1 .3.288c.08.136.136.32.168.552a6.6 6.6 0 0 1 .048.876c0 .552-.08.968-.24 1.248-.152.272-.408.408-.768.408a.698.698 0 0 1-.444-.132 1.03 1.03 0 0 1-.264-.348 1.726 1.726 0 0 1-.108-.456 4.591 4.591 0 0 1-.024-.456h-1.656v.228c0 .24.028.5.084.78.064.272.184.528.36.768.176.232.428.42.756.564.336.144.772.216 1.308.216.544 0 .992-.068 1.344-.204.352-.144.628-.352.828-.624.208-.28.352-.612.432-.996.08-.384.12-.812.12-1.284 0-.336-.032-.664-.096-.984a2.562 2.562 0 0 0-.336-.876 1.671 1.671 0 0 0-.636-.612c-.264-.16-.6-.24-1.008-.24-.368 0-.68.052-.936.156a1.321 1.321 0 0 0-.624.48h-.024l.18-1.932h3.132Z" fill="#D8D8D8"/><mask id="a" style="mask-type:alpha" maskUnits="userSpaceOnUse" x="4" y="7" width="22" height="16"><path fill-rule="evenodd" clip-rule="evenodd" d="M15 7.5c-5 0-9.27 3.11-11 7.5 1.73 4.39 6 7.5 11 7.5s9.27-3.11 11-7.5c-1.73-4.39-6-7.5-11-7.5ZM15 20c-2.76 0-5-2.24-5-5s2.24-5 5-5 5 2.24 5 5-2.24 5-5 5Zm0-8c-1.66 0-3 1.34-3 3s1.34 3 3 3 3-1.34 3-3-1.34-3-3-3Z" fill="#fff"/></mask><g mask="url(#a)"><path fill="#fff" d="M2 2h26v26H2z"/></g></svg>